solid triplet
facet normal 0.2588 -0.9659 0
outer loop
vertex 0.3860 -0.9319 -1.0000
vertex 0.3860 -0.9319 -0.8637
vertex 0.1317 -1.0000 -1.0000
endloop
endfacet
facet normal -0.2588 0.9659 0
outer loop
vertex -0.1317 1.0000 -1.0000
vertex -0.3860 0.9319 -1.0000
vertex -0.3860 0.9319 -0.8637
endloop
endfacet
facet normal 0.2588 0.9659 0
outer loop
vertex 0.1317 1.0000 -1.0000
vertex 0.3860 0.9319 -0.8637
vertex 0.3860 0.9319 -1.0000
endloop
endfacet
facet normal -0.2588 -0.9659 0
outer loop
vertex -0.1317 -1.0000 -1.0000
vertex -0.3860 -0.9319 -0.8637
vertex -0.3860 -0.9319 -1.0000
endloop
endfacet
facet normal 0.9659 0.2588 0
outer loop
vertex 0.9319 0.3860 0.2280
vertex 1.0000 0.1317 0.7367
vertex 0.9319 0.3860 -1.0000
endloop
endfacet
facet normal 0.9659 0.2588 0
outer loop
vertex 0.9319 0.3860 -1.0000
vertex 1.0000 0.1317 0.7367
vertex 1.0000 0.1317 -1.0000
endloop
endfacet
facet normal -0.9659 -0.2588 0
outer loop
vertex -0.9319 -0.3860 0.2280
vertex -1.0000 -0.1317 0.7367
vertex -0.9319 -0.3860 -1.0000
endloop
endfacet
facet normal -0.9659 -0.2588 0
outer loop
vertex -0.9319 -0.3860 -1.0000
vertex -1.0000 -0.1317 0.7367
vertex -1.0000 -0.1317 -1.0000
endloop
endfacet
facet normal 1.0000 0 0
outer loop
vertex 1.0000 -0.1317 0.7367
vertex 1.0000 -0.1317 -1.0000
vertex 1.0000 0.1317 -1.0000
endloop
endfacet
facet normal 1.0000 0 0
outer loop
vertex 1.0000 -0.1317 0.7367
vertex 1.0000 0.1317 0.7367
vertex 1.0000 0 1.0000
endloop
endfacet
facet normal 1.0000 0 0
outer loop
vertex 1.0000 0.1317 -1.0000
vertex 1.0000 0.1317 0.7367
vertex 1.0000 -0.1317 0.7367
endloop
endfacet
facet normal 0.8660 -0.5000 0
outer loop
vertex 0.9319 -0.3860 -1.0000
vertex 0.9319 -0.3860 0.2280
vertex 0.8002 -0.6140 -0.2280
endloop
endfacet
facet normal 0.8660 -0.5000 0
outer loop
vertex 0.9319 -0.3860 -1.0000
vertex 0.8002 -0.6140 -0.2280
vertex 0.8002 -0.6140 -1.0000
endloop
endfacet
facet normal 0.9659 -0.2588 0
outer loop
vertex 0.9319 -0.3860 -1.0000
vertex 1.0000 -0.1317 0.7367
vertex 0.9319 -0.3860 0.2280
endloop
endfacet
facet normal 0.9659 -0.2588 0
outer loop
vertex 1.0000 -0.1317 -1.0000
vertex 1.0000 -0.1317 0.7367
vertex 0.9319 -0.3860 -1.0000
endloop
endfacet
facet normal -0.5000 -0.8660 0
outer loop
vertex -0.6140 -0.8002 -1.0000
vertex -0.3860 -0.9319 -1.0000
vertex -0.3860 -0.9319 -0.8637
endloop
endfacet
facet normal -0.5000 -0.8660 0
outer loop
vertex -0.6140 -0.8002 -0.6004
vertex -0.6140 -0.8002 -1.0000
vertex -0.3860 -0.9319 -0.8637
endloop
endfacet
facet normal -1.0000 0 0
outer loop
vertex -1.0000 0.1317 0.7367
vertex -1.0000 0.1317 -1.0000
vertex -1.0000 -0.1317 -1.0000
endloop
endfacet
facet normal -1.0000 0 0
outer loop
vertex -1.0000 0.1317 0.7367
vertex -1.0000 -0.1317 0.7367
vertex -1.0000 0 1.0000
endloop
endfacet
facet normal -1.0000 0 0
outer loop
vertex -1.0000 -0.1317 -1.0000
vertex -1.0000 -0.1317 0.7367
vertex -1.0000 0.1317 0.7367
endloop
endfacet
facet normal -0.8660 0.5000 0
outer loop
vertex -0.9319 0.3860 -1.0000
vertex -0.9319 0.3860 0.2280
vertex -0.8002 0.6140 -0.2280
endloop
endfacet
facet normal -0.8660 0.5000 0
outer loop
vertex -0.9319 0.3860 -1.0000
vertex -0.8002 0.6140 -0.2280
vertex -0.8002 0.6140 -1.0000
endloop
endfacet
facet normal -0.9659 0.2588 0
outer loop
vertex -1.0000 0.1317 -1.0000
vertex -1.0000 0.1317 0.7367
vertex -0.9319 0.3860 -1.0000
endloop
endfacet
facet normal -0.9659 0.2588 0
outer loop
vertex -0.9319 0.3860 -1.0000
vertex -1.0000 0.1317 0.7367
vertex -0.9319 0.3860 0.2280
endloop
endfacet
facet normal 0.5000 0.8660 0
outer loop
vertex 0.3860 0.9319 -1.0000
vertex 0.3860 0.9319 -0.8637
vertex 0.6140 0.8002 -0.6004
endloop
endfacet
facet normal 0.5000 0.8660 0
outer loop
vertex 0.6140 0.8002 -0.6004
vertex 0.6140 0.8002 -1.0000
vertex 0.3860 0.9319 -1.0000
endloop
endfacet
facet normal 0.7071 0.7071 0
outer loop
vertex 0.8002 0.6140 -0.2280
vertex 0.8002 0.6140 -1.0000
vertex 0.6140 0.8002 -1.0000
endloop
endfacet
facet normal 0.7071 0.7071 0
outer loop
vertex 0.8002 0.6140 -0.2280
vertex 0.6140 0.8002 -1.0000
vertex 0.6140 0.8002 -0.6004
endloop
endfacet
facet normal 0.8660 0.5000 0
outer loop
vertex 0.9319 0.3860 0.2280
vertex 0.9319 0.3860 -1.0000
vertex 0.8002 0.6140 -0.2280
endloop
endfacet
facet normal 0.8660 0.5000 0
outer loop
vertex 0.9319 0.3860 -1.0000
vertex 0.8002 0.6140 -1.0000
vertex 0.8002 0.6140 -0.2280
endloop
endfacet
facet normal -0.7071 -0.7071 0
outer loop
vertex -0.8002 -0.6140 -0.2280
vertex -0.6140 -0.8002 -1.0000
vertex -0.6140 -0.8002 -0.6004
endloop
endfacet
facet normal -0.7071 -0.7071 0
outer loop
vertex -0.8002 -0.6140 -0.2280
vertex -0.8002 -0.6140 -1.0000
vertex -0.6140 -0.8002 -1.0000
endloop
endfacet
facet normal -0.8660 -0.5000 0
outer loop
vertex -0.9319 -0.3860 0.2280
vertex -0.9319 -0.3860 -1.0000
vertex -0.8002 -0.6140 -0.2280
endloop
endfacet
facet normal -0.8660 -0.5000 0
outer loop
vertex -0.9319 -0.3860 -1.0000
vertex -0.8002 -0.6140 -1.0000
vertex -0.8002 -0.6140 -0.2280
endloop
endfacet
facet normal 0 0 -1.0000
outer loop
vertex 1.0000 0.1317 -1.0000
vertex 1.0000 -0.1317 -1.0000
vertex -0.6140 0.8002 -1.0000
endloop
endfacet
facet normal 0 0 -1.0000
outer loop
vertex -1.0000 -0.1317 -1.0000
vertex -1.0000 0.1317 -1.0000
vertex -0.6140 0.8002 -1.0000
endloop
endfacet
facet normal 0 0 -1.0000
outer loop
vertex -0.6140 0.8002 -1.0000
vertex -0.3860 0.9319 -1.0000
vertex -0.1317 1.0000 -1.0000
endloop
endfacet
facet normal 0 0 -1.0000
outer loop
vertex -0.6140 0.8002 -1.0000
vertex -0.9319 -0.3860 -1.0000
vertex -1.0000 -0.1317 -1.0000
endloop
endfacet
facet normal 0 0 -1.0000
outer loop
vertex -0.6140 0.8002 -1.0000
vertex 0.9319 0.3860 -1.0000
vertex 1.0000 0.1317 -1.0000
endloop
endfacet
facet normal 0 0 -1.0000
outer loop
vertex -0.6140 0.8002 -1.0000
vertex 0.3860 -0.9319 -1.0000
vertex 0.1317 -1.0000 -1.0000
endloop
endfacet
facet normal 0 0 -1.0000
outer loop
vertex -0.1317 1.0000 -1.0000
vertex 0.1317 1.0000 -1.0000
vertex -0.6140 0.8002 -1.0000
endloop
endfacet
facet normal 0 0 -1.0000
outer loop
vertex -0.6140 0.8002 -1.0000
vertex 0.3860 0.9319 -1.0000
vertex 0.6140 0.8002 -1.0000
endloop
endfacet
facet normal 0 0 -1.0000
outer loop
vertex -0.6140 -0.8002 -1.0000
vertex -0.8002 -0.6140 -1.0000
vertex -0.6140 0.8002 -1.0000
endloop
endfacet
facet normal 0 0 -1.0000
outer loop
vertex 0.8002 -0.6140 -1.0000
vertex 0.6140 -0.8002 -1.0000
vertex -0.6140 0.8002 -1.0000
endloop
endfacet
facet normal 0 0 -1.0000
outer loop
vertex -0.6140 0.8002 -1.0000
vertex 0.9319 -0.3860 -1.0000
vertex 0.8002 -0.6140 -1.0000
endloop
endfacet
facet normal 0 0 -1.0000
outer loop
vertex -0.6140 0.8002 -1.0000
vertex -0.3860 -0.9319 -1.0000
vertex -0.6140 -0.8002 -1.0000
endloop
endfacet
facet normal 0 0 -1.0000
outer loop
vertex 0.6140 0.8002 -1.0000
vertex 0.8002 0.6140 -1.0000
vertex -0.6140 0.8002 -1.0000
endloop
endfacet
facet normal 0 0 -1.0000
outer loop
vertex 0.1317 -1.0000 -1.0000
vertex -0.1317 -1.0000 -1.0000
vertex -0.6140 0.8002 -1.0000
endloop
endfacet
facet normal 0 0 -1.0000
outer loop
vertex -0.6140 0.8002 -1.0000
vertex -0.9319 0.3860 -1.0000
vertex -0.8002 0.6140 -1.0000
endloop
endfacet
facet normal 0 0 -1.0000
outer loop
vertex 1.0000 -0.1317 -1.0000
vertex 0.9319 -0.3860 -1.0000
vertex -0.6140 0.8002 -1.0000
endloop
endfacet
facet normal 0 0 -1.0000
outer loop
vertex -0.6140 0.8002 -1.0000
vertex 0.8002 0.6140 -1.0000
vertex 0.9319 0.3860 -1.0000
endloop
endfacet
facet normal 0 0 -1.0000
outer loop
vertex -0.6140 0.8002 -1.0000
vertex -0.8002 -0.6140 -1.0000
vertex -0.9319 -0.3860 -1.0000
endloop
endfacet
facet normal 0 0 -1.0000
outer loop
vertex -1.0000 0.1317 -1.0000
vertex -0.9319 0.3860 -1.0000
vertex -0.6140 0.8002 -1.0000
endloop
endfacet
facet normal 0 0 -1.0000
outer loop
vertex -0.6140 0.8002 -1.0000
vertex 0.6140 -0.8002 -1.0000
vertex 0.3860 -0.9319 -1.0000
endloop
endfacet
facet normal 0 0 -1.0000
outer loop
vertex 0.1317 1.0000 -1.0000
vertex 0.3860 0.9319 -1.0000
vertex -0.6140 0.8002 -1.0000
endloop
endfacet
facet normal 0 0 -1.0000
outer loop
vertex -0.6140 0.8002 -1.0000
vertex -0.1317 -1.0000 -1.0000
vertex -0.3860 -0.9319 -1.0000
endloop
endfacet
facet normal 0 -0.8944 0.4472
outer loop
vertex 0.6140 -0.8002 -0.6004
vertex 1.0000 0 1.0000
vertex -1.0000 0 1.0000
endloop
endfacet
facet normal 0 -0.8944 0.4472
outer loop
vertex 0.1317 -1.0000 -1.0000
vertex 0.3860 -0.9319 -0.8637
vertex 0.6140 -0.8002 -0.6004
endloop
endfacet
facet normal 0 -0.8944 0.4472
outer loop
vertex 0.6140 -0.8002 -0.6004
vertex 1.0000 -0.1317 0.7367
vertex 1.0000 0 1.0000
endloop
endfacet
facet normal 0 -0.8944 0.4472
outer loop
vertex -1.0000 0 1.0000
vertex -1.0000 -0.1317 0.7367
vertex 0.6140 -0.8002 -0.6004
endloop
endfacet
facet normal 0 -0.8944 0.4472
outer loop
vertex 0.6140 -0.8002 -0.6004
vertex -0.1317 -1.0000 -1.0000
vertex 0.1317 -1.0000 -1.0000
endloop
endfacet
facet normal 0 -0.8944 0.4472
outer loop
vertex 0.6140 -0.8002 -0.6004
vertex -0.8002 -0.6140 -0.2280
vertex -0.6140 -0.8002 -0.6004
endloop
endfacet
facet normal 0 -0.8944 0.4472
outer loop
vertex 0.8002 -0.6140 -0.2280
vertex 0.9319 -0.3860 0.2280
vertex 0.6140 -0.8002 -0.6004
endloop
endfacet
facet normal 0 -0.8944 0.4472
outer loop
vertex 0.6140 -0.8002 -0.6004
vertex -1.0000 -0.1317 0.7367
vertex -0.9319 -0.3860 0.2280
endloop
endfacet
facet normal 0 -0.8944 0.4472
outer loop
vertex 0.9319 -0.3860 0.2280
vertex 1.0000 -0.1317 0.7367
vertex 0.6140 -0.8002 -0.6004
endloop
endfacet
facet normal 0 -0.8944 0.4472
outer loop
vertex -0.6140 -0.8002 -0.6004
vertex -0.3860 -0.9319 -0.8637
vertex 0.6140 -0.8002 -0.6004
endloop
endfacet
facet normal 0 -0.8944 0.4472
outer loop
vertex -0.3860 -0.9319 -0.8637
vertex -0.1317 -1.0000 -1.0000
vertex 0.6140 -0.8002 -0.6004
endloop
endfacet
facet normal 0 -0.8944 0.4472
outer loop
vertex -0.9319 -0.3860 0.2280
vertex -0.8002 -0.6140 -0.2280
vertex 0.6140 -0.8002 -0.6004
endloop
endfacet
facet normal 0.7071 -0.7071 0
outer loop
vertex 0.8002 -0.6140 -1.0000
vertex 0.8002 -0.6140 -0.2280
vertex 0.6140 -0.8002 -0.6004
endloop
endfacet
facet normal 0.7071 -0.7071 0
outer loop
vertex 0.6140 -0.8002 -0.6004
vertex 0.6140 -0.8002 -1.0000
vertex 0.8002 -0.6140 -1.0000
endloop
endfacet
facet normal 0.5000 -0.8660 0
outer loop
vertex 0.3860 -0.9319 -1.0000
vertex 0.6140 -0.8002 -1.0000
vertex 0.6140 -0.8002 -0.6004
endloop
endfacet
facet normal 0.5000 -0.8660 0
outer loop
vertex 0.3860 -0.9319 -0.8637
vertex 0.3860 -0.9319 -1.0000
vertex 0.6140 -0.8002 -0.6004
endloop
endfacet
facet normal 0 0.8944 0.4472
outer loop
vertex -0.6140 0.8002 -0.6004
vertex 0.1317 1.0000 -1.0000
vertex -0.1317 1.0000 -1.0000
endloop
endfacet
facet normal 0 0.8944 0.4472
outer loop
vertex -1.0000 0 1.0000
vertex 1.0000 0 1.0000
vertex -0.6140 0.8002 -0.6004
endloop
endfacet
facet normal 0 0.8944 0.4472
outer loop
vertex 1.0000 0 1.0000
vertex 1.0000 0.1317 0.7367
vertex -0.6140 0.8002 -0.6004
endloop
endfacet
facet normal 0 0.8944 0.4472
outer loop
vertex -0.6140 0.8002 -0.6004
vertex -1.0000 0.1317 0.7367
vertex -1.0000 0 1.0000
endloop
endfacet
facet normal 0 0.8944 0.4472
outer loop
vertex 0.6140 0.8002 -0.6004
vertex 0.3860 0.9319 -0.8637
vertex -0.6140 0.8002 -0.6004
endloop
endfacet
facet normal 0 0.8944 0.4472
outer loop
vertex -0.1317 1.0000 -1.0000
vertex -0.3860 0.9319 -0.8637
vertex -0.6140 0.8002 -0.6004
endloop
endfacet
facet normal 0 0.8944 0.4472
outer loop
vertex -0.6140 0.8002 -0.6004
vertex 1.0000 0.1317 0.7367
vertex 0.9319 0.3860 0.2280
endloop
endfacet
facet normal 0 0.8944 0.4472
outer loop
vertex -0.8002 0.6140 -0.2280
vertex -0.9319 0.3860 0.2280
vertex -0.6140 0.8002 -0.6004
endloop
endfacet
facet normal 0 0.8944 0.4472
outer loop
vertex -0.6140 0.8002 -0.6004
vertex 0.3860 0.9319 -0.8637
vertex 0.1317 1.0000 -1.0000
endloop
endfacet
facet normal 0 0.8944 0.4472
outer loop
vertex -0.6140 0.8002 -0.6004
vertex 0.8002 0.6140 -0.2280
vertex 0.6140 0.8002 -0.6004
endloop
endfacet
facet normal 0 0.8944 0.4472
outer loop
vertex -0.9319 0.3860 0.2280
vertex -1.0000 0.1317 0.7367
vertex -0.6140 0.8002 -0.6004
endloop
endfacet
facet normal 0 0.8944 0.4472
outer loop
vertex 0.9319 0.3860 0.2280
vertex 0.8002 0.6140 -0.2280
vertex -0.6140 0.8002 -0.6004
endloop
endfacet
facet normal -0.7071 0.7071 0
outer loop
vertex -0.8002 0.6140 -1.0000
vertex -0.8002 0.6140 -0.2280
vertex -0.6140 0.8002 -0.6004
endloop
endfacet
facet normal -0.7071 0.7071 0
outer loop
vertex -0.6140 0.8002 -0.6004
vertex -0.6140 0.8002 -1.0000
vertex -0.8002 0.6140 -1.0000
endloop
endfacet
facet normal -0.5000 0.8660 0
outer loop
vertex -0.3860 0.9319 -1.0000
vertex -0.6140 0.8002 -1.0000
vertex -0.6140 0.8002 -0.6004
endloop
endfacet
facet normal -0.5000 0.8660 0
outer loop
vertex -0.6140 0.8002 -0.6004
vertex -0.3860 0.9319 -0.8637
vertex -0.3860 0.9319 -1.0000
endloop
endfacet
endsolid triplet
